<svg xmlns="http://www.w3.org/2000/svg" shape-rendering="geometricPrecision" text-rendering="geometricPrecision" image-rendering="optimizeQuality" fill-rule="evenodd" clip-rule="evenodd" viewBox="0 0 512 512"><path fill-rule="nonzero" d="M365.77 65.94C313.31 35.66 253.49 29.51 199.2 44.05 144.95 58.59 96.24 93.83 65.94 146.3l-.53.86C35.59 199.4 29.59 258.84 44.05 312.81c14.54 54.25 49.78 102.95 102.25 133.25l.86.53c52.23 29.82 111.68 35.82 165.65 21.35 54.28-14.54 102.98-49.75 133.25-102.17 30.28-52.46 36.43-112.29 21.88-166.58C453.4 144.92 418.19 96.2 365.77 65.94zM237.31 301.42l-26.32-26.31-81.84 104.19 3.97 3.97 104.19-81.85zM189.77 8.75C252.98-8.19 322.7-.99 383.92 34.35c61.27 35.37 102.39 92.18 119.33 155.41 16.94 63.22 9.74 132.94-25.6 194.16-35.37 61.27-92.18 102.39-155.42 119.33-62.84 16.84-132.12 9.82-193.08-24.99l-1.15-.61C66.8 442.31 25.7 385.5 8.75 322.24c-16.84-62.85-9.82-132.13 24.99-193.09l.61-1.15C69.69 66.8 126.5 25.7 189.77 8.75z"/><path fill="#EF4136" d="m380.23 204.4-73.11-73.12c-6.23-6.22-16.09.2-19.04 5.68-.5.93.38 1.78-.42 8.1-.99 7.85-2.77 16.55-5.63 23.46l-32.52 32.52c-12.98 12.98-31.54 7.21-47.38-.66-3.34-1.66-7.63-5.32-11.33-1.62l-13.77 13.77c-2.01 2.01-2.01 5.3 0 7.31l115.55 115.55c2.01 2.01 5.3 2.01 7.31 0l13.77-13.77c3.66-3.66-1.01-8.41-2.93-12.38-7.04-14.57-13.35-34-1.62-45.74l33.95-33.94c6.68-2.09 15.29-4.05 23.52-5.34 6.4-1.01 7.18-.22 8.11-.82 5.59-3.61 11.8-12.74 5.54-19z"/></svg>